<mxfile host="app.diagrams.net" modified="2024-05-14T09:22:05.338Z" agent="Mozilla/5.0 (Windows NT 10.0; Win64; x64) AppleWebKit/537.36 (KHTML, like Gecko) Chrome/116.0.0.0 Safari/537.36" etag="1O6HjB2B7FMc9tr0Sw3w" version="24.4.0" type="github">
  <diagram name="第 1 页" id="ocNPtZc6uqVlzni6iZia">
    <mxGraphModel dx="875" dy="452" grid="1" gridSize="10" guides="1" tooltips="1" connect="1" arrows="1" fold="1" page="1" pageScale="1" pageWidth="827" pageHeight="1169" math="0" shadow="0">
      <root>
        <mxCell id="0" />
        <mxCell id="1" parent="0" />
        <mxCell id="qnGo216ssbPZ3uDhUP0o-7" style="edgeStyle=orthogonalEdgeStyle;rounded=0;orthogonalLoop=1;jettySize=auto;html=1;entryX=0;entryY=0.25;entryDx=0;entryDy=0;" edge="1" parent="1" source="qnGo216ssbPZ3uDhUP0o-2" target="qnGo216ssbPZ3uDhUP0o-3">
          <mxGeometry relative="1" as="geometry">
            <Array as="points">
              <mxPoint x="220" y="215" />
              <mxPoint x="220" y="215" />
            </Array>
          </mxGeometry>
        </mxCell>
        <mxCell id="qnGo216ssbPZ3uDhUP0o-2" value="客户端" style="rounded=0;whiteSpace=wrap;html=1;" vertex="1" parent="1">
          <mxGeometry x="60" y="200" width="120" height="60" as="geometry" />
        </mxCell>
        <mxCell id="qnGo216ssbPZ3uDhUP0o-9" style="edgeStyle=orthogonalEdgeStyle;rounded=0;orthogonalLoop=1;jettySize=auto;html=1;entryX=1;entryY=0.75;entryDx=0;entryDy=0;" edge="1" parent="1" source="qnGo216ssbPZ3uDhUP0o-3" target="qnGo216ssbPZ3uDhUP0o-2">
          <mxGeometry relative="1" as="geometry">
            <Array as="points">
              <mxPoint x="300" y="245" />
              <mxPoint x="300" y="245" />
            </Array>
          </mxGeometry>
        </mxCell>
        <mxCell id="qnGo216ssbPZ3uDhUP0o-13" style="edgeStyle=orthogonalEdgeStyle;rounded=0;orthogonalLoop=1;jettySize=auto;html=1;entryX=0;entryY=0.25;entryDx=0;entryDy=0;" edge="1" parent="1" source="qnGo216ssbPZ3uDhUP0o-3" target="qnGo216ssbPZ3uDhUP0o-5">
          <mxGeometry relative="1" as="geometry">
            <Array as="points">
              <mxPoint x="390" y="105" />
            </Array>
          </mxGeometry>
        </mxCell>
        <mxCell id="qnGo216ssbPZ3uDhUP0o-22" style="edgeStyle=orthogonalEdgeStyle;rounded=0;orthogonalLoop=1;jettySize=auto;html=1;entryX=0;entryY=0.25;entryDx=0;entryDy=0;" edge="1" parent="1" source="qnGo216ssbPZ3uDhUP0o-3" target="qnGo216ssbPZ3uDhUP0o-4">
          <mxGeometry relative="1" as="geometry">
            <Array as="points">
              <mxPoint x="400" y="335" />
            </Array>
          </mxGeometry>
        </mxCell>
        <mxCell id="qnGo216ssbPZ3uDhUP0o-3" value="商店服务端" style="rounded=0;whiteSpace=wrap;html=1;" vertex="1" parent="1">
          <mxGeometry x="330" y="200" width="120" height="60" as="geometry" />
        </mxCell>
        <mxCell id="qnGo216ssbPZ3uDhUP0o-16" style="edgeStyle=orthogonalEdgeStyle;rounded=0;orthogonalLoop=1;jettySize=auto;html=1;entryX=0.25;entryY=1;entryDx=0;entryDy=0;" edge="1" parent="1" source="qnGo216ssbPZ3uDhUP0o-4" target="qnGo216ssbPZ3uDhUP0o-5">
          <mxGeometry relative="1" as="geometry">
            <Array as="points">
              <mxPoint x="660" y="270" />
              <mxPoint x="660" y="270" />
            </Array>
          </mxGeometry>
        </mxCell>
        <mxCell id="qnGo216ssbPZ3uDhUP0o-4" value="融合" style="rounded=0;whiteSpace=wrap;html=1;" vertex="1" parent="1">
          <mxGeometry x="630" y="320" width="120" height="60" as="geometry" />
        </mxCell>
        <mxCell id="qnGo216ssbPZ3uDhUP0o-17" style="edgeStyle=orthogonalEdgeStyle;rounded=0;orthogonalLoop=1;jettySize=auto;html=1;entryX=0.75;entryY=0;entryDx=0;entryDy=0;" edge="1" parent="1" source="qnGo216ssbPZ3uDhUP0o-5" target="qnGo216ssbPZ3uDhUP0o-4">
          <mxGeometry relative="1" as="geometry">
            <Array as="points">
              <mxPoint x="720" y="190" />
              <mxPoint x="720" y="190" />
            </Array>
          </mxGeometry>
        </mxCell>
        <mxCell id="qnGo216ssbPZ3uDhUP0o-18" style="edgeStyle=orthogonalEdgeStyle;rounded=0;orthogonalLoop=1;jettySize=auto;html=1;entryX=0.75;entryY=0;entryDx=0;entryDy=0;" edge="1" parent="1" source="qnGo216ssbPZ3uDhUP0o-5" target="qnGo216ssbPZ3uDhUP0o-3">
          <mxGeometry relative="1" as="geometry" />
        </mxCell>
        <mxCell id="qnGo216ssbPZ3uDhUP0o-5" value="拍卖引擎" style="rounded=0;whiteSpace=wrap;html=1;" vertex="1" parent="1">
          <mxGeometry x="630" y="90" width="120" height="60" as="geometry" />
        </mxCell>
        <mxCell id="qnGo216ssbPZ3uDhUP0o-10" value="TransAdInfoDto distributeAdInfoDto" style="text;html=1;align=center;verticalAlign=middle;resizable=0;points=[];autosize=1;strokeColor=none;fillColor=none;" vertex="1" parent="1">
          <mxGeometry x="140" y="260" width="210" height="30" as="geometry" />
        </mxCell>
        <mxCell id="qnGo216ssbPZ3uDhUP0o-11" value="String adTransParent&lt;br&gt;(JSON字符串）" style="text;html=1;align=center;verticalAlign=middle;resizable=0;points=[];autosize=1;strokeColor=none;fillColor=none;" vertex="1" parent="1">
          <mxGeometry x="185" y="160" width="140" height="40" as="geometry" />
        </mxCell>
        <mxCell id="qnGo216ssbPZ3uDhUP0o-20" value="Map&amp;lt;String, String&amp;gt; clientExt" style="text;html=1;align=center;verticalAlign=middle;resizable=0;points=[];autosize=1;strokeColor=none;fillColor=none;" vertex="1" parent="1">
          <mxGeometry x="425" y="360" width="180" height="30" as="geometry" />
        </mxCell>
        <mxCell id="qnGo216ssbPZ3uDhUP0o-21" value="Map&amp;lt;String, String&amp;gt; adTransparent" style="text;html=1;align=center;verticalAlign=middle;resizable=0;points=[];autosize=1;strokeColor=none;fillColor=none;" vertex="1" parent="1">
          <mxGeometry x="410" y="300" width="210" height="30" as="geometry" />
        </mxCell>
        <mxCell id="qnGo216ssbPZ3uDhUP0o-23" style="edgeStyle=orthogonalEdgeStyle;rounded=0;orthogonalLoop=1;jettySize=auto;html=1;entryX=0.336;entryY=1.033;entryDx=0;entryDy=0;entryPerimeter=0;" edge="1" parent="1" source="qnGo216ssbPZ3uDhUP0o-4" target="qnGo216ssbPZ3uDhUP0o-3">
          <mxGeometry relative="1" as="geometry">
            <Array as="points">
              <mxPoint x="370" y="360" />
            </Array>
          </mxGeometry>
        </mxCell>
      </root>
    </mxGraphModel>
  </diagram>
</mxfile>
